<svg width="151" height="64" viewBox="0 0 151 64" fill="none" xmlns="http://www.w3.org/2000/svg">
<path d="M73.848 31.192C71.72 31.192 70.016 30.792 68.736 29.992C67.456 29.176 66.816 27.936 66.816 26.272C66.816 25.392 66.968 24.72 67.272 24.256C67.576 23.792 68.024 23.56 68.616 23.56C69.048 23.56 69.4 23.672 69.672 23.896C69.944 24.12 70.08 24.408 70.08 24.76C70.08 25.08 70.056 25.36 70.008 25.6C70.008 25.664 69.992 25.776 69.96 25.936C69.944 26.096 69.936 26.264 69.936 26.44C69.936 27.16 70.296 27.696 71.016 28.048C71.752 28.4 72.776 28.576 74.088 28.576C75.448 28.576 76.512 28.336 77.28 27.856C78.048 27.36 78.432 26.672 78.432 25.792C78.432 25.248 78.256 24.784 77.904 24.4C77.552 24 77.112 23.672 76.584 23.416C76.056 23.144 75.312 22.816 74.352 22.432C73.12 21.952 72.112 21.496 71.328 21.064C70.56 20.632 69.896 20.048 69.336 19.312C68.792 18.56 68.52 17.632 68.52 16.528C68.52 15.376 68.824 14.352 69.432 13.456C70.056 12.56 70.944 11.864 72.096 11.368C73.264 10.872 74.632 10.624 76.2 10.624C77.368 10.624 78.44 10.8 79.416 11.152C80.392 11.488 81.168 12.008 81.744 12.712C82.336 13.416 82.632 14.28 82.632 15.304C82.632 16.312 82.48 17.072 82.176 17.584C81.872 18.096 81.424 18.352 80.832 18.352C80.416 18.352 80.064 18.224 79.776 17.968C79.504 17.712 79.368 17.408 79.368 17.056C79.368 16.752 79.392 16.472 79.44 16.216C79.488 15.736 79.512 15.432 79.512 15.304C79.512 14.632 79.184 14.12 78.528 13.768C77.872 13.416 77.056 13.24 76.08 13.24C74.704 13.24 73.648 13.496 72.912 14.008C72.192 14.504 71.832 15.208 71.832 16.12C71.832 16.728 72.016 17.248 72.384 17.68C72.768 18.112 73.24 18.472 73.8 18.76C74.36 19.048 75.144 19.392 76.152 19.792C77.368 20.288 78.344 20.736 79.08 21.136C79.816 21.536 80.44 22.08 80.952 22.768C81.48 23.456 81.744 24.304 81.744 25.312C81.744 27.2 81.024 28.656 79.584 29.68C78.16 30.688 76.248 31.192 73.848 31.192ZM94.4966 25.648C94.7046 25.648 94.8646 25.744 94.9766 25.936C95.1046 26.128 95.1686 26.392 95.1686 26.728C95.1686 27.368 95.0166 27.864 94.7126 28.216C94.1206 28.936 93.2806 29.6 92.1926 30.208C91.1206 30.816 89.9686 31.12 88.7366 31.12C87.0566 31.12 85.7526 30.664 84.8246 29.752C83.8966 28.84 83.4326 27.592 83.4326 26.008C83.4326 24.904 83.6646 23.88 84.1286 22.936C84.5926 21.976 85.2326 21.216 86.0486 20.656C86.8806 20.096 87.8166 19.816 88.8566 19.816C89.7846 19.816 90.5286 20.096 91.0886 20.656C91.6486 21.2 91.9286 21.944 91.9286 22.888C91.9286 23.992 91.5286 24.944 90.7286 25.744C89.9446 26.528 88.6086 27.152 86.7206 27.616C87.1206 28.352 87.8806 28.72 89.0006 28.72C89.7206 28.72 90.5366 28.472 91.4486 27.976C92.3766 27.464 93.1766 26.8 93.8486 25.984C94.0406 25.76 94.2566 25.648 94.4966 25.648ZM88.4486 22.168C87.8566 22.168 87.3526 22.512 86.9366 23.2C86.5366 23.888 86.3366 24.72 86.3366 25.696V25.744C87.2806 25.52 88.0246 25.184 88.5686 24.736C89.1126 24.288 89.3846 23.768 89.3846 23.176C89.3846 22.872 89.2966 22.632 89.1206 22.456C88.9606 22.264 88.7366 22.168 88.4486 22.168ZM97.1745 22.096C97.1425 22.896 97.1265 23.52 97.1265 23.968C97.1265 25.12 97.1825 26.024 97.2945 26.68C97.4225 27.32 97.6225 27.784 97.8945 28.072C98.1825 28.344 98.5745 28.48 99.0705 28.48C99.3265 28.48 99.6305 28.4 99.9825 28.24C100.335 28.08 100.655 27.872 100.943 27.616C101.119 27.456 101.295 27.376 101.471 27.376C101.663 27.376 101.815 27.488 101.927 27.712C102.055 27.92 102.119 28.176 102.119 28.48C102.119 28.784 102.055 29.08 101.927 29.368C101.815 29.656 101.639 29.896 101.399 30.088C100.567 30.776 99.6225 31.12 98.5665 31.12C97.0465 31.12 95.9345 30.488 95.2305 29.224C94.5265 27.944 94.1745 26.28 94.1745 24.232C94.1745 23.528 94.1985 22.816 94.2465 22.096H93.3105C92.8305 22.096 92.5025 22.008 92.3265 21.832C92.1665 21.656 92.0865 21.376 92.0865 20.992C92.0865 20.096 92.4465 19.648 93.1665 19.648H94.5345C94.8065 17.888 95.2225 16.28 95.7825 14.824C96.3425 13.368 97.0145 12.208 97.7985 11.344C98.5985 10.48 99.4545 10.048 100.367 10.048C101.039 10.048 101.567 10.344 101.951 10.936C102.335 11.528 102.527 12.272 102.527 13.168C102.527 15.648 101.487 17.808 99.4065 19.648H102.095C102.351 19.648 102.535 19.704 102.647 19.816C102.759 19.928 102.815 20.136 102.815 20.44C102.815 21.544 101.911 22.096 100.103 22.096H97.1745ZM99.7185 12.352C99.4785 12.352 99.2065 12.656 98.9025 13.264C98.6145 13.856 98.3345 14.688 98.0625 15.76C97.8065 16.816 97.5905 17.992 97.4145 19.288C98.3585 18.472 99.0625 17.56 99.5265 16.552C100.007 15.528 100.247 14.6 100.247 13.768C100.247 12.824 100.071 12.352 99.7185 12.352Z" fill="#CBFFFF"/>
<path d="M93.576 47.648C93.784 47.648 93.944 47.744 94.056 47.936C94.184 48.128 94.248 48.392 94.248 48.728C94.248 49.352 94.096 49.848 93.792 50.216C92.896 51.288 92.024 52.04 91.176 52.472C90.344 52.904 89.336 53.12 88.152 53.12C87.32 53.12 86.552 53.016 85.848 52.808C85.144 52.6 84.288 52.288 83.28 51.872C82.368 51.472 81.488 51.144 80.64 50.888C79.824 52.376 78.6 53.12 76.968 53.12C76.072 53.12 75.36 52.92 74.832 52.52C74.288 52.104 74.016 51.576 74.016 50.936C74.016 50.152 74.392 49.504 75.144 48.992C75.896 48.464 76.896 48.2 78.144 48.2H78.456L78.888 41.216C78.984 39.616 79.272 38.296 79.752 37.256C80.232 36.216 80.896 35.328 81.744 34.592C82.48 33.952 83.32 33.472 84.264 33.152C85.208 32.816 86.208 32.648 87.264 32.648C88.992 32.648 90.32 33.096 91.248 33.992C92.176 34.888 92.64 36.056 92.64 37.496C92.64 38.472 92.464 39.264 92.112 39.872C91.76 40.464 91.272 40.76 90.648 40.76C90.2 40.76 89.848 40.656 89.592 40.448C89.336 40.224 89.208 39.912 89.208 39.512C89.208 39.368 89.24 39.104 89.304 38.72C89.4 38.272 89.448 37.872 89.448 37.52C89.448 36.848 89.248 36.32 88.848 35.936C88.464 35.536 87.872 35.336 87.072 35.336C85.664 35.336 84.576 35.8 83.808 36.728C83.04 37.64 82.552 39.08 82.344 41.048L81.792 46.496C81.712 47.264 81.608 47.928 81.48 48.488C82.504 48.664 83.784 48.944 85.32 49.328C86.216 49.552 86.904 49.712 87.384 49.808C87.864 49.904 88.288 49.952 88.656 49.952C89.584 49.952 90.376 49.8 91.032 49.496C91.704 49.176 92.336 48.672 92.928 47.984C93.12 47.76 93.336 47.648 93.576 47.648ZM96.1644 40.232C95.4924 40.232 94.9884 40.08 94.6524 39.776C94.3164 39.456 94.1484 39.016 94.1484 38.456C94.1484 37.896 94.3644 37.432 94.7964 37.064C95.2444 36.68 95.7964 36.488 96.4524 36.488C97.0444 36.488 97.5244 36.632 97.8924 36.92C98.2604 37.208 98.4444 37.616 98.4444 38.144C98.4444 38.784 98.2364 39.296 97.8204 39.68C97.4044 40.048 96.8524 40.232 96.1644 40.232ZM95.9724 53.12C94.9324 53.12 94.1724 52.752 93.6924 52.016C93.2284 51.28 92.9964 50.304 92.9964 49.088C92.9964 48.368 93.0844 47.448 93.2604 46.328C93.4524 45.192 93.6924 44.136 93.9804 43.16C94.1244 42.648 94.3164 42.296 94.5564 42.104C94.7964 41.912 95.1804 41.816 95.7084 41.816C96.5244 41.816 96.9324 42.088 96.9324 42.632C96.9324 43.032 96.7804 43.96 96.4764 45.416C96.0924 47.176 95.9004 48.368 95.9004 48.992C95.9004 49.472 95.9644 49.84 96.0924 50.096C96.2204 50.352 96.4364 50.48 96.7404 50.48C97.0284 50.48 97.3884 50.28 97.8204 49.88C98.2524 49.48 98.8284 48.848 99.5484 47.984C99.7404 47.76 99.9564 47.648 100.196 47.648C100.404 47.648 100.564 47.744 100.676 47.936C100.804 48.128 100.868 48.392 100.868 48.728C100.868 49.368 100.716 49.864 100.412 50.216C98.8284 52.152 97.3484 53.12 95.9724 53.12ZM104.111 53.648C103.279 53.648 102.639 53.456 102.191 53.072C101.759 52.688 101.543 52.256 101.543 51.776C101.543 51.36 101.695 51 101.999 50.696C102.303 50.392 102.751 50.24 103.343 50.24C103.551 50.24 103.791 50.264 104.063 50.312C104.351 50.344 104.567 50.368 104.711 50.384C104.695 49.968 104.599 49.576 104.423 49.208C104.263 48.84 104.055 48.488 103.799 48.152C103.543 47.8 103.303 47.496 103.079 47.24C102.583 48.184 102.087 48.968 101.591 49.592C101.111 50.216 100.583 50.808 100.007 51.368C99.7187 51.656 99.4147 51.8 99.0947 51.8C98.8387 51.8 98.6307 51.712 98.4707 51.536C98.3107 51.344 98.2307 51.112 98.2307 50.84C98.2307 50.52 98.3427 50.224 98.5667 49.952L98.8787 49.568C99.7587 48.48 100.423 47.584 100.871 46.88C101.143 46.416 101.463 45.8 101.831 45.032C102.199 44.248 102.559 43.44 102.911 42.608C103.215 41.904 103.847 41.552 104.807 41.552C105.255 41.552 105.567 41.592 105.743 41.672C105.919 41.752 106.007 41.88 106.007 42.056C106.007 42.152 105.975 42.304 105.911 42.512C105.847 42.72 105.759 42.928 105.647 43.136C105.359 43.712 105.215 44.2 105.215 44.6C105.215 44.84 105.295 45.104 105.455 45.392C105.631 45.68 105.895 46.04 106.247 46.472C106.759 47.144 107.143 47.72 107.399 48.2C107.671 48.664 107.807 49.176 107.807 49.736C107.807 49.896 107.791 50.12 107.759 50.408C108.543 50.104 109.463 49.296 110.519 47.984C110.711 47.76 110.927 47.648 111.167 47.648C111.375 47.648 111.535 47.744 111.647 47.936C111.775 48.128 111.839 48.392 111.839 48.728C111.839 49.336 111.687 49.832 111.383 50.216C110.583 51.208 109.815 51.888 109.079 52.256C108.359 52.608 107.463 52.8 106.391 52.832C105.751 53.376 104.991 53.648 104.111 53.648ZM114.569 44.096C114.537 44.896 114.521 45.52 114.521 45.968C114.521 47.12 114.577 48.024 114.689 48.68C114.817 49.32 115.017 49.784 115.289 50.072C115.577 50.344 115.969 50.48 116.465 50.48C116.721 50.48 117.025 50.4 117.377 50.24C117.729 50.08 118.049 49.872 118.337 49.616C118.513 49.456 118.689 49.376 118.865 49.376C119.057 49.376 119.209 49.488 119.321 49.712C119.449 49.92 119.513 50.176 119.513 50.48C119.513 50.784 119.449 51.08 119.321 51.368C119.209 51.656 119.033 51.896 118.793 52.088C117.961 52.776 117.017 53.12 115.961 53.12C114.441 53.12 113.329 52.488 112.625 51.224C111.921 49.944 111.569 48.28 111.569 46.232C111.569 45.528 111.593 44.816 111.641 44.096H110.705C110.225 44.096 109.897 44.008 109.721 43.832C109.561 43.656 109.481 43.376 109.481 42.992C109.481 42.096 109.841 41.648 110.561 41.648H111.929C112.201 39.888 112.617 38.28 113.177 36.824C113.737 35.368 114.409 34.208 115.193 33.344C115.993 32.48 116.849 32.048 117.761 32.048C118.433 32.048 118.961 32.344 119.345 32.936C119.729 33.528 119.921 34.272 119.921 35.168C119.921 37.648 118.881 39.808 116.801 41.648H119.489C119.745 41.648 119.929 41.704 120.041 41.816C120.153 41.928 120.209 42.136 120.209 42.44C120.209 43.544 119.305 44.096 117.497 44.096H114.569ZM117.113 34.352C116.873 34.352 116.601 34.656 116.297 35.264C116.009 35.856 115.729 36.688 115.457 37.76C115.201 38.816 114.985 39.992 114.809 41.288C115.753 40.472 116.457 39.56 116.921 38.552C117.401 37.528 117.641 36.6 117.641 35.768C117.641 34.824 117.465 34.352 117.113 34.352Z" fill="#CBFFFF"/>
<path d="M121.752 16.696C121.752 18.056 121.4 19.304 120.696 20.44C119.992 21.576 118.968 22.504 117.624 23.224C116.28 23.944 114.68 24.368 112.824 24.496L111.792 30.28C111.392 32.504 110.304 33.616 108.528 33.616C107.552 33.616 106.648 33.328 105.816 32.752C105 32.176 104.344 31.296 103.848 30.112C103.352 28.928 103.104 27.472 103.104 25.744C103.104 22.496 103.624 19.744 104.664 17.488C105.72 15.216 107.128 13.52 108.888 12.4C110.664 11.264 112.616 10.696 114.744 10.696C116.248 10.696 117.52 10.96 118.56 11.488C119.616 12.016 120.408 12.736 120.936 13.648C121.48 14.544 121.752 15.56 121.752 16.696ZM113.256 22.024C116.536 21.608 118.176 19.904 118.176 16.912C118.176 15.856 117.824 15 117.12 14.344C116.432 13.672 115.36 13.336 113.904 13.336C112.256 13.336 110.816 13.856 109.584 14.896C108.368 15.936 107.424 17.384 106.752 19.24C106.096 21.08 105.768 23.184 105.768 25.552C105.768 26.544 105.864 27.424 106.056 28.192C106.264 28.96 106.52 29.56 106.824 29.992C107.144 30.408 107.448 30.616 107.736 30.616C108.136 30.616 108.44 30.064 108.648 28.96L109.44 24.424C108.816 24.328 108.544 24.288 108.624 24.304C108.144 24.224 107.832 24.08 107.688 23.872C107.544 23.648 107.472 23.368 107.472 23.032C107.472 22.68 107.568 22.4 107.76 22.192C107.968 21.984 108.248 21.88 108.6 21.88C108.76 21.88 108.88 21.888 108.96 21.904C109.344 21.968 109.64 22.008 109.848 22.024C110.056 20.776 110.352 19.104 110.736 17.008C110.832 16.464 111.048 16.08 111.384 15.856C111.736 15.616 112.144 15.496 112.608 15.496C113.136 15.496 113.512 15.6 113.736 15.808C113.976 16 114.096 16.312 114.096 16.744C114.096 17 114.08 17.208 114.048 17.368L113.256 22.024ZM131.561 25.648C131.769 25.648 131.929 25.744 132.041 25.936C132.169 26.128 132.233 26.392 132.233 26.728C132.233 27.368 132.081 27.864 131.777 28.216C131.089 29.064 130.337 29.76 129.521 30.304C128.721 30.848 127.809 31.12 126.785 31.12C125.377 31.12 124.329 30.48 123.641 29.2C122.969 27.92 122.633 26.264 122.633 24.232C122.633 22.28 122.881 20.056 123.377 17.56C123.889 15.064 124.633 12.92 125.609 11.128C126.601 9.336 127.777 8.44 129.137 8.44C129.905 8.44 130.505 8.8 130.937 9.52C131.385 10.224 131.609 11.24 131.609 12.568C131.609 14.472 131.081 16.68 130.025 19.192C128.969 21.704 127.537 24.192 125.729 26.656C125.841 27.312 126.025 27.784 126.281 28.072C126.537 28.344 126.873 28.48 127.289 28.48C127.945 28.48 128.521 28.296 129.017 27.928C129.513 27.544 130.145 26.896 130.913 25.984C131.105 25.76 131.321 25.648 131.561 25.648ZM128.609 10.816C128.241 10.816 127.825 11.48 127.361 12.808C126.897 14.136 126.489 15.784 126.137 17.752C125.785 19.72 125.593 21.608 125.561 23.416C126.697 21.544 127.601 19.672 128.273 17.8C128.945 15.912 129.281 14.192 129.281 12.64C129.281 11.424 129.057 10.816 128.609 10.816ZM133.01 31.12C132.018 31.12 131.226 30.76 130.634 30.04C130.042 29.32 129.746 28.376 129.746 27.208C129.746 25.928 130.042 24.72 130.634 23.584C131.226 22.432 132.01 21.512 132.986 20.824C133.978 20.12 135.026 19.768 136.13 19.768C136.482 19.768 136.714 19.84 136.826 19.984C136.954 20.112 137.058 20.352 137.138 20.704C137.474 20.64 137.826 20.608 138.194 20.608C138.978 20.608 139.37 20.888 139.37 21.448C139.37 21.784 139.25 22.584 139.01 23.848C138.642 25.688 138.458 26.968 138.458 27.688C138.458 27.928 138.514 28.12 138.626 28.264C138.754 28.408 138.914 28.48 139.106 28.48C139.41 28.48 139.778 28.288 140.21 27.904C140.642 27.504 141.226 26.864 141.962 25.984C142.154 25.76 142.37 25.648 142.61 25.648C142.818 25.648 142.978 25.744 143.09 25.936C143.218 26.128 143.282 26.392 143.282 26.728C143.282 27.368 143.13 27.864 142.826 28.216C142.17 29.032 141.474 29.72 140.738 30.28C140.002 30.84 139.29 31.12 138.602 31.12C138.074 31.12 137.586 30.944 137.138 30.592C136.706 30.224 136.378 29.728 136.154 29.104C135.322 30.448 134.274 31.12 133.01 31.12ZM133.874 28.696C134.226 28.696 134.562 28.488 134.882 28.072C135.202 27.656 135.434 27.104 135.578 26.416L136.466 22C135.794 22.016 135.17 22.272 134.594 22.768C134.034 23.248 133.586 23.888 133.25 24.688C132.914 25.488 132.746 26.336 132.746 27.232C132.746 27.728 132.842 28.096 133.034 28.336C133.242 28.576 133.522 28.696 133.874 28.696ZM149.732 19.816C150.1 19.816 150.356 19.864 150.5 19.96C150.644 20.056 150.716 20.216 150.716 20.44C150.716 20.824 150.508 22.192 150.092 24.544C149.724 26.8 149.508 28.136 149.444 28.552C148.852 32.664 148.036 35.92 146.996 38.32C145.956 40.72 144.572 41.92 142.844 41.92C142.028 41.92 141.364 41.664 140.852 41.152C140.34 40.656 140.084 40 140.084 39.184C140.084 38.432 140.252 37.664 140.588 36.88C140.94 36.096 141.58 35.192 142.508 34.168C143.452 33.16 144.78 32 146.492 30.688L146.564 30.136C146.676 29.544 146.804 28.696 146.948 27.592C146.628 28.744 146.18 29.624 145.604 30.232C145.028 30.824 144.42 31.12 143.78 31.12C143.06 31.12 142.468 30.792 142.004 30.136C141.556 29.464 141.332 28.632 141.332 27.64C141.332 26.44 141.412 25.344 141.572 24.352C141.732 23.344 141.996 22.28 142.364 21.16C142.524 20.68 142.748 20.336 143.036 20.128C143.324 19.92 143.78 19.816 144.404 19.816C144.756 19.816 144.996 19.872 145.124 19.984C145.268 20.096 145.34 20.264 145.34 20.488C145.34 20.616 145.252 21.048 145.076 21.784C144.916 22.376 144.788 22.912 144.692 23.392C144.564 24.048 144.452 24.68 144.356 25.288C144.26 25.88 144.212 26.368 144.212 26.752C144.212 27.36 144.38 27.664 144.716 27.664C144.956 27.664 145.252 27.424 145.604 26.944C145.972 26.464 146.356 25.736 146.756 24.76C147.172 23.784 147.572 22.584 147.956 21.16C148.084 20.68 148.276 20.336 148.532 20.128C148.804 19.92 149.204 19.816 149.732 19.816ZM143.108 39.592C143.508 39.592 143.956 39.128 144.452 38.2C144.948 37.272 145.444 35.728 145.94 33.568C144.708 34.608 143.812 35.552 143.252 36.4C142.708 37.264 142.436 38.016 142.436 38.656C142.436 38.928 142.484 39.152 142.58 39.328C142.692 39.504 142.868 39.592 143.108 39.592Z" fill="#CBFFFF"/>
<path fill-rule="evenodd" clip-rule="evenodd" d="M46.9048 4.14282C47.3031 4.14282 47.6851 4.2996 47.9667 4.57868C48.2484 4.85775 48.4066 5.23625 48.4066 5.63092V38.369C48.4066 38.7637 48.2484 39.1422 47.9667 39.4213C47.6851 39.7003 47.3031 39.8571 46.9048 39.8571C46.5065 39.8571 46.1245 39.7003 45.8428 39.4213C45.5612 39.1422 45.403 38.7637 45.403 38.369V5.63092C45.403 5.23625 45.5612 4.85775 45.8428 4.57868C46.1245 4.2996 46.5065 4.14282 46.9048 4.14282ZM40.8975 10.0952C41.2958 10.0952 41.6778 10.252 41.9594 10.5311C42.2411 10.8101 42.3993 11.1886 42.3993 11.5833V32.4166C42.3993 32.8113 42.2411 33.1898 41.9594 33.4689C41.6778 33.7479 41.2958 33.9047 40.8975 33.9047C40.4992 33.9047 40.1172 33.7479 39.8355 33.4689C39.5539 33.1898 39.3956 32.8113 39.3956 32.4166V11.5833C39.3956 11.1886 39.5539 10.8101 39.8355 10.5311C40.1172 10.252 40.4992 10.0952 40.8975 10.0952ZM52.9121 10.0952C53.3104 10.0952 53.6924 10.252 53.9741 10.5311C54.2557 10.8101 54.414 11.1886 54.414 11.5833V32.4166C54.414 32.8113 54.2557 33.1898 53.9741 33.4689C53.6924 33.7479 53.3104 33.9047 52.9121 33.9047C52.5138 33.9047 52.1318 33.7479 51.8502 33.4689C51.5685 33.1898 51.4103 32.8113 51.4103 32.4166V11.5833C51.4103 11.1886 51.5685 10.8101 51.8502 10.5311C52.1318 10.252 52.5138 10.0952 52.9121 10.0952ZM34.8901 14.5595C35.2885 14.5595 35.6704 14.7163 35.9521 14.9953C36.2337 15.2744 36.392 15.6529 36.392 16.0476V27.9523C36.392 28.347 36.2337 28.7255 35.9521 29.0046C35.6704 29.2837 35.2885 29.4404 34.8901 29.4404C34.4918 29.4404 34.1098 29.2837 33.8282 29.0046C33.5465 28.7255 33.3883 28.347 33.3883 27.9523V16.0476C33.3883 15.6529 33.5465 15.2744 33.8282 14.9953C34.1098 14.7163 34.4918 14.5595 34.8901 14.5595ZM58.9194 14.5595C59.3178 14.5595 59.6998 14.7163 59.9814 14.9953C60.2631 15.2744 60.4213 15.6529 60.4213 16.0476V27.9523C60.4213 28.347 60.2631 28.7255 59.9814 29.0046C59.6998 29.2837 59.3178 29.4404 58.9194 29.4404C58.5211 29.4404 58.1391 29.2837 57.8575 29.0046C57.5758 28.7255 57.4176 28.347 57.4176 27.9523V16.0476C57.4176 15.6529 57.5758 15.2744 57.8575 14.9953C58.1391 14.7163 58.5211 14.5595 58.9194 14.5595ZM28.8828 17.5357C29.2811 17.5357 29.6631 17.6925 29.9448 17.9715C30.2264 18.2506 30.3846 18.6291 30.3846 19.0238V24.9762C30.3846 25.3708 30.2264 25.7493 29.9448 26.0284C29.6631 26.3075 29.2811 26.4643 28.8828 26.4643C28.4845 26.4643 28.1025 26.3075 27.8209 26.0284C27.5392 25.7493 27.381 25.3708 27.381 24.9762V19.0238C27.381 18.6291 27.5392 18.2506 27.8209 17.9715C28.1025 17.6925 28.4845 17.5357 28.8828 17.5357ZM64.9268 17.5357C65.3251 17.5357 65.7071 17.6925 65.9887 17.9715C66.2704 18.2506 66.4286 18.6291 66.4286 19.0238V24.9762C66.4286 25.3708 66.2704 25.7493 65.9887 26.0284C65.7071 26.3075 65.3251 26.4643 64.9268 26.4643C64.5285 26.4643 64.1465 26.3075 63.8648 26.0284C63.5832 25.7493 63.4249 25.3708 63.4249 24.9762V19.0238C63.4249 18.6291 63.5832 18.2506 63.8648 17.9715C64.1465 17.6925 64.5285 17.5357 64.9268 17.5357Z" fill="#CBFFFF"/>
<path fill-rule="evenodd" clip-rule="evenodd" d="M19.5238 7.71436C19.9221 7.71436 20.3041 7.87114 20.5858 8.15021C20.8674 8.42928 21.0256 8.80778 21.0256 9.20245V41.9405C21.0256 42.3352 20.8674 42.7137 20.5858 42.9928C20.3041 43.2719 19.9221 43.4286 19.5238 43.4286C19.1255 43.4286 18.7435 43.2719 18.4619 42.9928C18.1802 42.7137 18.022 42.3352 18.022 41.9405V9.20245C18.022 8.80778 18.1802 8.42928 18.4619 8.15021C18.7435 7.87114 19.1255 7.71436 19.5238 7.71436ZM13.5165 13.6667C13.9148 13.6667 14.2968 13.8235 14.5784 14.1026C14.8601 14.3817 15.0183 14.7602 15.0183 15.1548V35.9882C15.0183 36.3828 14.8601 36.7613 14.5784 37.0404C14.2968 37.3195 13.9148 37.4763 13.5165 37.4763C13.1182 37.4763 12.7362 37.3195 12.4545 37.0404C12.1729 36.7613 12.0147 36.3828 12.0147 35.9882V15.1548C12.0147 14.7602 12.1729 14.3817 12.4545 14.1026C12.7362 13.8235 13.1182 13.6667 13.5165 13.6667ZM25.5311 13.6667C25.9294 13.6667 26.3114 13.8235 26.5931 14.1026C26.8747 14.3817 27.033 14.7602 27.033 15.1548V35.9882C27.033 36.3828 26.8747 36.7613 26.5931 37.0404C26.3114 37.3195 25.9294 37.4763 25.5311 37.4763C25.1328 37.4763 24.7508 37.3195 24.4692 37.0404C24.1875 36.7613 24.0293 36.3828 24.0293 35.9882V15.1548C24.0293 14.7602 24.1875 14.3817 24.4692 14.1026C24.7508 13.8235 25.1328 13.6667 25.5311 13.6667ZM7.50916 18.131C7.90747 18.131 8.28946 18.2878 8.57111 18.5669C8.85276 18.8459 9.01099 19.2245 9.01099 19.6191V31.5239C9.01099 31.9185 8.85276 32.2971 8.57111 32.5761C8.28946 32.8552 7.90747 33.012 7.50916 33.012C7.11085 33.012 6.72885 32.8552 6.4472 32.5761C6.16555 32.2971 6.00733 31.9185 6.00733 31.5239V19.6191C6.00733 19.2245 6.16555 18.8459 6.4472 18.5669C6.72885 18.2878 7.11085 18.131 7.50916 18.131ZM31.5385 18.131C31.9368 18.131 32.3188 18.2878 32.6004 18.5669C32.8821 18.8459 33.0403 19.2245 33.0403 19.6191V31.5239C33.0403 31.9185 32.8821 32.2971 32.6004 32.5761C32.3188 32.8552 31.9368 33.012 31.5385 33.012C31.1402 33.012 30.7582 32.8552 30.4765 32.5761C30.1949 32.2971 30.0366 31.9185 30.0366 31.5239V19.6191C30.0366 19.2245 30.1949 18.8459 30.4765 18.5669C30.7582 18.2878 31.1402 18.131 31.5385 18.131ZM1.50183 21.1072C1.90014 21.1072 2.28214 21.264 2.56379 21.5431C2.84543 21.8221 3.00366 22.2006 3.00366 22.5953V28.5477C3.00366 28.9424 2.84543 29.3209 2.56379 29.5999C2.28214 29.879 1.90014 30.0358 1.50183 30.0358C1.10352 30.0358 0.721525 29.879 0.439877 29.5999C0.158229 29.3209 0 28.9424 0 28.5477V22.5953C0 22.2006 0.158229 21.8221 0.439877 21.5431C0.721525 21.264 1.10352 21.1072 1.50183 21.1072ZM37.5458 21.1072C37.9441 21.1072 38.3261 21.264 38.6077 21.5431C38.8894 21.8221 39.0476 22.2006 39.0476 22.5953V28.5477C39.0476 28.9424 38.8894 29.3209 38.6077 29.5999C38.3261 29.879 37.9441 30.0358 37.5458 30.0358C37.1475 30.0358 36.7655 29.879 36.4838 29.5999C36.2022 29.3209 36.044 28.9424 36.044 28.5477V22.5953C36.044 22.2006 36.2022 21.8221 36.4838 21.5431C36.7655 21.264 37.1475 21.1072 37.5458 21.1072Z" fill="#CBFFFF"/>
<path fill-rule="evenodd" clip-rule="evenodd" d="M38.5714 18.4286C38.9697 18.4286 39.3517 18.5854 39.6334 18.8644C39.915 19.1435 40.0732 19.522 40.0732 19.9167V52.6548C40.0732 53.0494 39.915 53.428 39.6334 53.707C39.3517 53.9861 38.9697 54.1429 38.5714 54.1429C38.1731 54.1429 37.7911 53.9861 37.5095 53.707C37.2278 53.428 37.0696 53.0494 37.0696 52.6548V19.9167C37.0696 19.522 37.2278 19.1435 37.5095 18.8644C37.7911 18.5854 38.1731 18.4286 38.5714 18.4286ZM32.5641 24.381C32.9624 24.381 33.3444 24.5378 33.626 24.8168C33.9077 25.0959 34.0659 25.4744 34.0659 25.8691V46.7024C34.0659 47.0971 33.9077 47.4756 33.626 47.7546C33.3444 48.0337 32.9624 48.1905 32.5641 48.1905C32.1658 48.1905 31.7838 48.0337 31.5021 47.7546C31.2205 47.4756 31.0623 47.0971 31.0623 46.7024V25.8691C31.0623 25.4744 31.2205 25.0959 31.5021 24.8168C31.7838 24.5378 32.1658 24.381 32.5641 24.381ZM44.5787 24.381C44.9771 24.381 45.359 24.5378 45.6407 24.8168C45.9223 25.0959 46.0806 25.4744 46.0806 25.8691V46.7024C46.0806 47.0971 45.9223 47.4756 45.6407 47.7546C45.359 48.0337 44.9771 48.1905 44.5787 48.1905C44.1804 48.1905 43.7984 48.0337 43.5168 47.7546C43.2351 47.4756 43.0769 47.0971 43.0769 46.7024V25.8691C43.0769 25.4744 43.2351 25.0959 43.5168 24.8168C43.7984 24.5378 44.1804 24.381 44.5787 24.381ZM26.5568 28.8453C26.9551 28.8453 27.3371 29.002 27.6187 29.2811C27.9004 29.5602 28.0586 29.9387 28.0586 30.3334V42.2381C28.0586 42.6328 27.9004 43.0113 27.6187 43.2904C27.3371 43.5694 26.9551 43.7262 26.5568 43.7262C26.1585 43.7262 25.7765 43.5694 25.4948 43.2904C25.2132 43.0113 25.0549 42.6328 25.0549 42.2381V30.3334C25.0549 29.9387 25.2132 29.5602 25.4948 29.2811C25.7765 29.002 26.1585 28.8453 26.5568 28.8453ZM50.5861 28.8453C50.9844 28.8453 51.3664 29.002 51.648 29.2811C51.9297 29.5602 52.0879 29.9387 52.0879 30.3334V42.2381C52.0879 42.6328 51.9297 43.0113 51.648 43.2904C51.3664 43.5694 50.9844 43.7262 50.5861 43.7262C50.1878 43.7262 49.8058 43.5694 49.5241 43.2904C49.2425 43.0113 49.0842 42.6328 49.0842 42.2381V30.3334C49.0842 29.9387 49.2425 29.5602 49.5241 29.2811C49.8058 29.002 50.1878 28.8453 50.5861 28.8453ZM20.5494 31.8214C20.9477 31.8214 21.3297 31.9782 21.6114 32.2573C21.893 32.5364 22.0513 32.9149 22.0513 33.3095V39.2619C22.0513 39.6566 21.893 40.0351 21.6114 40.3142C21.3297 40.5932 20.9477 40.75 20.5494 40.75C20.1511 40.75 19.7691 40.5932 19.4875 40.3142C19.2058 40.0351 19.0476 39.6566 19.0476 39.2619V33.3095C19.0476 32.9149 19.2058 32.5364 19.4875 32.2573C19.7691 31.9782 20.1511 31.8214 20.5494 31.8214ZM56.5934 31.8214C56.9917 31.8214 57.3737 31.9782 57.6553 32.2573C57.937 32.5364 58.0952 32.9149 58.0952 33.3095V39.2619C58.0952 39.6566 57.937 40.0351 57.6553 40.3142C57.3737 40.5932 56.9917 40.75 56.5934 40.75C56.1951 40.75 55.8131 40.5932 55.5314 40.3142C55.2498 40.0351 55.0916 39.6566 55.0916 39.2619V33.3095C55.0916 32.9149 55.2498 32.5364 55.5314 32.2573C55.8131 31.9782 56.1951 31.8214 56.5934 31.8214Z" fill="#CBFFFF"/>
</svg>
